<svg id="menu_o" data-name="menu o" xmlns="http://www.w3.org/2000/svg" width="1920" height="250" viewBox="0 0 1920 250">
  <metadata><?xpacket begin="﻿" id="W5M0MpCehiHzreSzNTczkc9d"?>
<x:xmpmeta xmlns:x="adobe:ns:meta/" x:xmptk="Adobe XMP Core 5.6-c140 79.160451, 2017/05/06-01:08:21        ">
   <rdf:RDF xmlns:rdf="http://www.w3.org/1999/02/22-rdf-syntax-ns#">
      <rdf:Description rdf:about=""/>
   </rdf:RDF>
</x:xmpmeta>
                                                                                                    
                                                                                                    
                                                                                                    
                                                                                                    
                                                                                                    
                                                                                                    
                                                                                                    
                                                                                                    
                                                                                                    
                                                                                                    
                                                                                                    
                                                                                                    
                                                                                                    
                                                                                                    
                                                                                                    
                                                                                                    
                                                                                                    
                                                                                                    
                                                                                                    
                                                                                                    
                           
<?xpacket end="w"?></metadata>
<defs>
    <style>
      .cls-1 {
        fill: #fff;
        fill-rule: evenodd;
      }
    </style>
  </defs>
  <path class="cls-1" d="M356.544,249.988c-54.518,1.22-93.6-88.62-224.672-48.171-143.453,44.208-163.859-23.273-324.064,19-16.446,4.37-29.746,7.418-38.579,7.622-42.843,1.118-58.274-9.35-99.188-19.513-25.889-6.5-59.7-17.277-116.245-19.005-39.7-1.219-88.021,29.472-130.153,24.6-226.6-26.627-246.6,33.537-362.643,22.154V-155H2006V236.675c-23.35-2.54-59.9-20.223-88.12-32.216-52.69-22.358-74.32-27.541-133-30.285-31.06-1.423-116.95,23.273-138.38,23.273-42.33,0-97.66-28.964-137.46-27.643-76.95,2.337-151.78,43.09-208.02,41.668-80.31-2.134-154.22-45.123-248.12-22.562-103.863,25-123.762.711-197.773-5.59C811.269,179.561,774.213,207,731.471,213c-100.2,14.126-142.641-26.322-219.494-19.615C481.723,196.024,478.49,228.4,455,230c-19.626,1.449-26.374-13.447-34.7-8.264-20.305,12.907-38.985,27.643-63.757,28.252h0Z"/>
</svg>
